# xmcd
# 
# Track frame offsets:
#     182
#     12557
#     37820
# 
# Disc length: 913
# 
# Revision: 0
# Processed by: cddbd v1.5.2PL0 Copyright (c) Steve Scherf et al.
# Submitted via: fre:ac v1.0.17
# 
DISCID=19038f03
DTITLE=Lolly - Viva La Radio
DYEAR=1999
DGENRE=
TTITLE0=Viva La Radio
TTITLE1=Vival La Radio Remix
TTITLE2=Vival La Radio - Amen UK Remix
EXTD=
EXTT0=
EXTT1=
EXTT2=
PLAYORDER=
